%TF.GenerationSoftware,KiCad,Pcbnew,(6.0.0-0)*%
%TF.CreationDate,2023-01-15T17:49:43+00:00*%
%TF.ProjectId,altera-7128-adaptor,616c7465-7261-42d3-9731-32382d616461,rev?*%
%TF.SameCoordinates,Original*%
%TF.FileFunction,Paste,Top*%
%TF.FilePolarity,Positive*%
%FSLAX46Y46*%
G04 Gerber Fmt 4.6, Leading zero omitted, Abs format (unit mm)*
G04 Created by KiCad (PCBNEW (6.0.0-0)) date 2023-01-15 17:49:43*
%MOMM*%
%LPD*%
G01*
G04 APERTURE LIST*
G04 Aperture macros list*
%AMRoundRect*
0 Rectangle with rounded corners*
0 $1 Rounding radius*
0 $2 $3 $4 $5 $6 $7 $8 $9 X,Y pos of 4 corners*
0 Add a 4 corners polygon primitive as box body*
4,1,4,$2,$3,$4,$5,$6,$7,$8,$9,$2,$3,0*
0 Add four circle primitives for the rounded corners*
1,1,$1+$1,$2,$3*
1,1,$1+$1,$4,$5*
1,1,$1+$1,$6,$7*
1,1,$1+$1,$8,$9*
0 Add four rect primitives between the rounded corners*
20,1,$1+$1,$2,$3,$4,$5,0*
20,1,$1+$1,$4,$5,$6,$7,0*
20,1,$1+$1,$6,$7,$8,$9,0*
20,1,$1+$1,$8,$9,$2,$3,0*%
G04 Aperture macros list end*
%ADD10R,1.752600X0.457200*%
%ADD11R,0.457200X1.752600*%
%ADD12RoundRect,0.250000X-0.350000X-0.450000X0.350000X-0.450000X0.350000X0.450000X-0.350000X0.450000X0*%
G04 APERTURE END LIST*
D10*
%TO.C,U1*%
X114096800Y-69316600D03*
X114096800Y-69977000D03*
X114096800Y-70612000D03*
X114096800Y-71272400D03*
X114096800Y-71907400D03*
X114096800Y-72567800D03*
X114096800Y-73202800D03*
X114096800Y-73863200D03*
X114096800Y-74523600D03*
X114096800Y-75158600D03*
X114096800Y-75819000D03*
X114096800Y-76454000D03*
X114096800Y-77114400D03*
X114096800Y-77774800D03*
X114096800Y-78409800D03*
X114096800Y-79070200D03*
X114096800Y-79705200D03*
X114096800Y-80365600D03*
X114096800Y-81026000D03*
X114096800Y-81661000D03*
X114096800Y-82321400D03*
X114096800Y-82956400D03*
X114096800Y-83616800D03*
X114096800Y-84277200D03*
X114096800Y-84912200D03*
X114096800Y-85572600D03*
X114096800Y-86207600D03*
X114096800Y-86868000D03*
X114096800Y-87503000D03*
X114096800Y-88163400D03*
D11*
X116001800Y-89814400D03*
X116636800Y-89814400D03*
X117297200Y-89814400D03*
X117957600Y-89814400D03*
X118592600Y-89814400D03*
X119253000Y-89814400D03*
X119888000Y-89814400D03*
X120548400Y-89814400D03*
X121208800Y-89814400D03*
X121843800Y-89814400D03*
X122504200Y-89814400D03*
X123139200Y-89814400D03*
X123799600Y-89814400D03*
X124460000Y-89814400D03*
X125095000Y-89814400D03*
X125755400Y-89814400D03*
X126390400Y-89814400D03*
X127050800Y-89814400D03*
X127711200Y-89814400D03*
X128346200Y-89814400D03*
D10*
X130251200Y-88163400D03*
X130251200Y-87503000D03*
X130251200Y-86868000D03*
X130251200Y-86207600D03*
X130251200Y-85572600D03*
X130251200Y-84912200D03*
X130251200Y-84277200D03*
X130251200Y-83616800D03*
X130251200Y-82956400D03*
X130251200Y-82321400D03*
X130251200Y-81661000D03*
X130251200Y-81026000D03*
X130251200Y-80365600D03*
X130251200Y-79705200D03*
X130251200Y-79070200D03*
X130251200Y-78409800D03*
X130251200Y-77774800D03*
X130251200Y-77114400D03*
X130251200Y-76454000D03*
X130251200Y-75819000D03*
X130251200Y-75158600D03*
X130251200Y-74523600D03*
X130251200Y-73863200D03*
X130251200Y-73202800D03*
X130251200Y-72567800D03*
X130251200Y-71907400D03*
X130251200Y-71272400D03*
X130251200Y-70612000D03*
X130251200Y-69977000D03*
X130251200Y-69316600D03*
D11*
X128346200Y-67665600D03*
X127711200Y-67665600D03*
X127050800Y-67665600D03*
X126390400Y-67665600D03*
X125755400Y-67665600D03*
X125095000Y-67665600D03*
X124460000Y-67665600D03*
X123799600Y-67665600D03*
X123139200Y-67665600D03*
X122504200Y-67665600D03*
X121843800Y-67665600D03*
X121208800Y-67665600D03*
X120548400Y-67665600D03*
X119888000Y-67665600D03*
X119253000Y-67665600D03*
X118592600Y-67665600D03*
X117957600Y-67665600D03*
X117297200Y-67665600D03*
X116636800Y-67665600D03*
X116001800Y-67665600D03*
%TD*%
D12*
%TO.C,R2*%
X124299511Y-125195489D03*
X126299511Y-125195489D03*
%TD*%
%TO.C,R1*%
X124375511Y-121131489D03*
X126375511Y-121131489D03*
%TD*%
%TO.C,R3*%
X119549511Y-121131489D03*
X121549511Y-121131489D03*
%TD*%
%TO.C,R4*%
X119565511Y-125195489D03*
X121565511Y-125195489D03*
%TD*%
M02*
