%TF.GenerationSoftware,KiCad,Pcbnew,(6.0.0-0)*%
%TF.CreationDate,2023-01-15T17:49:43+00:00*%
%TF.ProjectId,altera-7128-adaptor,616c7465-7261-42d3-9731-32382d616461,rev?*%
%TF.SameCoordinates,Original*%
%TF.FileFunction,Copper,L4,Bot*%
%TF.FilePolarity,Positive*%
%FSLAX46Y46*%
G04 Gerber Fmt 4.6, Leading zero omitted, Abs format (unit mm)*
G04 Created by KiCad (PCBNEW (6.0.0-0)) date 2023-01-15 17:49:43*
%MOMM*%
%LPD*%
G01*
G04 APERTURE LIST*
G04 Aperture macros list*
%AMRoundRect*
0 Rectangle with rounded corners*
0 $1 Rounding radius*
0 $2 $3 $4 $5 $6 $7 $8 $9 X,Y pos of 4 corners*
0 Add a 4 corners polygon primitive as box body*
4,1,4,$2,$3,$4,$5,$6,$7,$8,$9,$2,$3,0*
0 Add four circle primitives for the rounded corners*
1,1,$1+$1,$2,$3*
1,1,$1+$1,$4,$5*
1,1,$1+$1,$6,$7*
1,1,$1+$1,$8,$9*
0 Add four rect primitives between the rounded corners*
20,1,$1+$1,$2,$3,$4,$5,0*
20,1,$1+$1,$4,$5,$6,$7,0*
20,1,$1+$1,$6,$7,$8,$9,0*
20,1,$1+$1,$8,$9,$2,$3,0*%
G04 Aperture macros list end*
%TA.AperFunction,ComponentPad*%
%ADD10R,1.700000X1.700000*%
%TD*%
%TA.AperFunction,ComponentPad*%
%ADD11O,1.700000X1.700000*%
%TD*%
%TA.AperFunction,SMDPad,CuDef*%
%ADD12RoundRect,0.250000X-0.337500X-0.475000X0.337500X-0.475000X0.337500X0.475000X-0.337500X0.475000X0*%
%TD*%
%TA.AperFunction,SMDPad,CuDef*%
%ADD13RoundRect,0.250000X0.337500X0.475000X-0.337500X0.475000X-0.337500X-0.475000X0.337500X-0.475000X0*%
%TD*%
%TA.AperFunction,SMDPad,CuDef*%
%ADD14RoundRect,0.250000X0.475000X-0.337500X0.475000X0.337500X-0.475000X0.337500X-0.475000X-0.337500X0*%
%TD*%
%TA.AperFunction,ViaPad*%
%ADD15C,0.800000*%
%TD*%
%TA.AperFunction,Conductor*%
%ADD16C,0.152400*%
%TD*%
%TA.AperFunction,Conductor*%
%ADD17C,0.381000*%
%TD*%
%TA.AperFunction,Conductor*%
%ADD18C,0.200000*%
%TD*%
G04 APERTURE END LIST*
D10*
%TO.P,J2,1,TCK*%
%TO.N,/TCK*%
X118014511Y-132566489D03*
D11*
%TO.P,J2,2,GND*%
%TO.N,GND*%
X118014511Y-130026489D03*
%TO.P,J2,3,TDO*%
%TO.N,/TDO*%
X120554511Y-132566489D03*
%TO.P,J2,4,VREF*%
%TO.N,+5V*%
X120554511Y-130026489D03*
%TO.P,J2,5,TMS*%
%TO.N,/TMS*%
X123094511Y-132566489D03*
%TO.P,J2,6,~{SRST}*%
%TO.N,unconnected-(J2-Pad6)*%
X123094511Y-130026489D03*
%TO.P,J2,7,VCC*%
%TO.N,unconnected-(J2-Pad7)*%
X125634511Y-132566489D03*
%TO.P,J2,8,~{TRST}*%
%TO.N,unconnected-(J2-Pad8)*%
X125634511Y-130026489D03*
%TO.P,J2,9,TDI*%
%TO.N,/TDI*%
X128174511Y-132566489D03*
%TO.P,J2,10,GND*%
%TO.N,GND*%
X128174511Y-130026489D03*
%TD*%
D12*
%TO.P,C1,1*%
%TO.N,+5V*%
X120628500Y-70104000D03*
%TO.P,C1,2*%
%TO.N,GND*%
X122703500Y-70104000D03*
%TD*%
D10*
%TO.P,J5,1,Pin_1*%
%TO.N,+5V*%
X101600000Y-26431000D03*
D11*
%TO.P,J5,2,Pin_2*%
X101600000Y-28971000D03*
%TO.P,J5,3,Pin_3*%
X101600000Y-31511000D03*
%TD*%
D10*
%TO.P,J4,1,Pin_1*%
%TO.N,GND*%
X144780000Y-26685000D03*
D11*
%TO.P,J4,2,Pin_2*%
X144780000Y-29225000D03*
%TO.P,J4,3,Pin_3*%
X144780000Y-31765000D03*
%TD*%
D13*
%TO.P,C4,1*%
%TO.N,+5V*%
X128037500Y-87630000D03*
%TO.P,C4,2*%
%TO.N,GND*%
X125962500Y-87630000D03*
%TD*%
D12*
%TO.P,C5,1*%
%TO.N,+5V*%
X118850500Y-87630000D03*
%TO.P,C5,2*%
%TO.N,GND*%
X120925500Y-87630000D03*
%TD*%
D10*
%TO.P,J3,1,Pin_1*%
%TO.N,/GCLK1*%
X101600000Y-34290000D03*
D11*
%TO.P,J3,2,Pin_2*%
%TO.N,/IO2*%
X101600000Y-36830000D03*
%TO.P,J3,3,Pin_3*%
%TO.N,/IO3*%
X101600000Y-39370000D03*
%TO.P,J3,4,Pin_4*%
%TO.N,/IO4*%
X101600000Y-41910000D03*
%TO.P,J3,5,Pin_5*%
%TO.N,/IO5*%
X101600000Y-44450000D03*
%TO.P,J3,6,Pin_6*%
%TO.N,/IO6*%
X101600000Y-46990000D03*
%TO.P,J3,7,Pin_7*%
%TO.N,/IO7*%
X101600000Y-49530000D03*
%TO.P,J3,8,Pin_8*%
%TO.N,/IO8*%
X101600000Y-52070000D03*
%TO.P,J3,9,Pin_9*%
%TO.N,/IO9*%
X101600000Y-54610000D03*
%TO.P,J3,10,Pin_10*%
%TO.N,/IO10*%
X101600000Y-57150000D03*
%TO.P,J3,11,Pin_11*%
%TO.N,/IO11*%
X101600000Y-59690000D03*
%TO.P,J3,12,Pin_12*%
%TO.N,/IO12*%
X101600000Y-62230000D03*
%TO.P,J3,13,Pin_13*%
%TO.N,/IO13*%
X101600000Y-64770000D03*
%TO.P,J3,14,Pin_14*%
%TO.N,/IO14*%
X101600000Y-67310000D03*
%TO.P,J3,15,Pin_15*%
%TO.N,/IO15*%
X101600000Y-69850000D03*
%TO.P,J3,16,Pin_16*%
%TO.N,/IO16*%
X101600000Y-72390000D03*
%TO.P,J3,17,Pin_17*%
%TO.N,/IO17*%
X101600000Y-74930000D03*
%TO.P,J3,18,Pin_18*%
%TO.N,/IO18*%
X101600000Y-77470000D03*
%TO.P,J3,19,Pin_19*%
%TO.N,/IO19*%
X101600000Y-80010000D03*
%TO.P,J3,20,Pin_20*%
%TO.N,/IO20*%
X101600000Y-82550000D03*
%TO.P,J3,21,Pin_21*%
%TO.N,/IO21*%
X101600000Y-85090000D03*
%TO.P,J3,22,Pin_22*%
%TO.N,/IO22*%
X101600000Y-87630000D03*
%TO.P,J3,23,Pin_23*%
%TO.N,/IO23*%
X101600000Y-90170000D03*
%TO.P,J3,24,Pin_24*%
%TO.N,/IO24*%
X101600000Y-92710000D03*
%TO.P,J3,25,Pin_25*%
%TO.N,/IO25*%
X101600000Y-95250000D03*
%TO.P,J3,26,Pin_26*%
%TO.N,/IO26*%
X101600000Y-97790000D03*
%TO.P,J3,27,Pin_27*%
%TO.N,/IO27*%
X101600000Y-100330000D03*
%TO.P,J3,28,Pin_28*%
%TO.N,/IO28*%
X101600000Y-102870000D03*
%TO.P,J3,29,Pin_29*%
%TO.N,/IO29*%
X101600000Y-105410000D03*
%TO.P,J3,30,Pin_30*%
%TO.N,/IO30*%
X101600000Y-107950000D03*
%TO.P,J3,31,Pin_31*%
%TO.N,/IO31*%
X101600000Y-110490000D03*
%TO.P,J3,32,Pin_32*%
%TO.N,/IO32*%
X101600000Y-113030000D03*
%TO.P,J3,33,Pin_33*%
%TO.N,/IO33*%
X101600000Y-115570000D03*
%TO.P,J3,34,Pin_34*%
%TO.N,/IO34*%
X101600000Y-118110000D03*
%TO.P,J3,35,Pin_35*%
%TO.N,/IO35*%
X101600000Y-120650000D03*
%TO.P,J3,36,Pin_36*%
%TO.N,/IO36*%
X101600000Y-123190000D03*
%TO.P,J3,37,Pin_37*%
%TO.N,/IO37*%
X101600000Y-125730000D03*
%TO.P,J3,38,Pin_38*%
%TO.N,/IO38*%
X101600000Y-128270000D03*
%TO.P,J3,39,Pin_39*%
%TO.N,/IO39*%
X101600000Y-130810000D03*
%TO.P,J3,40,Pin_40*%
%TO.N,/IO40*%
X101600000Y-133350000D03*
%TD*%
D13*
%TO.P,C3,1*%
%TO.N,+5V*%
X126767500Y-70104000D03*
%TO.P,C3,2*%
%TO.N,GND*%
X124692500Y-70104000D03*
%TD*%
D14*
%TO.P,C2,1*%
%TO.N,+5V*%
X128016000Y-76475500D03*
%TO.P,C2,2*%
%TO.N,GND*%
X128016000Y-74400500D03*
%TD*%
D10*
%TO.P,J1,1,Pin_1*%
%TO.N,/IO41*%
X144780000Y-133350000D03*
D11*
%TO.P,J1,2,Pin_2*%
%TO.N,/IO42*%
X144780000Y-130810000D03*
%TO.P,J1,3,Pin_3*%
%TO.N,/IO43*%
X144780000Y-128270000D03*
%TO.P,J1,4,Pin_4*%
%TO.N,/IO44*%
X144780000Y-125730000D03*
%TO.P,J1,5,Pin_5*%
%TO.N,/IO45*%
X144780000Y-123190000D03*
%TO.P,J1,6,Pin_6*%
%TO.N,/IO46*%
X144780000Y-120650000D03*
%TO.P,J1,7,Pin_7*%
%TO.N,/IO47*%
X144780000Y-118110000D03*
%TO.P,J1,8,Pin_8*%
%TO.N,/IO48*%
X144780000Y-115570000D03*
%TO.P,J1,9,Pin_9*%
%TO.N,/IO49*%
X144780000Y-113030000D03*
%TO.P,J1,10,Pin_10*%
%TO.N,/IO50*%
X144780000Y-110490000D03*
%TO.P,J1,11,Pin_11*%
%TO.N,/IO51*%
X144780000Y-107950000D03*
%TO.P,J1,12,Pin_12*%
%TO.N,/IO52*%
X144780000Y-105410000D03*
%TO.P,J1,13,Pin_13*%
%TO.N,/IO53*%
X144780000Y-102870000D03*
%TO.P,J1,14,Pin_14*%
%TO.N,/IO54*%
X144780000Y-100330000D03*
%TO.P,J1,15,Pin_15*%
%TO.N,/IO55*%
X144780000Y-97790000D03*
%TO.P,J1,16,Pin_16*%
%TO.N,/IO56*%
X144780000Y-95250000D03*
%TO.P,J1,17,Pin_17*%
%TO.N,/IO57*%
X144780000Y-92710000D03*
%TO.P,J1,18,Pin_18*%
%TO.N,/IO58*%
X144780000Y-90170000D03*
%TO.P,J1,19,Pin_19*%
%TO.N,/IO59*%
X144780000Y-87630000D03*
%TO.P,J1,20,Pin_20*%
%TO.N,/IO60*%
X144780000Y-85090000D03*
%TO.P,J1,21,Pin_21*%
%TO.N,/IO61*%
X144780000Y-82550000D03*
%TO.P,J1,22,Pin_22*%
%TO.N,/IO62*%
X144780000Y-80010000D03*
%TO.P,J1,23,Pin_23*%
%TO.N,/IO63*%
X144780000Y-77470000D03*
%TO.P,J1,24,Pin_24*%
%TO.N,/IO64*%
X144780000Y-74930000D03*
%TO.P,J1,25,Pin_25*%
%TO.N,/IO65*%
X144780000Y-72390000D03*
%TO.P,J1,26,Pin_26*%
%TO.N,/IO66*%
X144780000Y-69850000D03*
%TO.P,J1,27,Pin_27*%
%TO.N,/IO67*%
X144780000Y-67310000D03*
%TO.P,J1,28,Pin_28*%
%TO.N,/IO68*%
X144780000Y-64770000D03*
%TO.P,J1,29,Pin_29*%
%TO.N,/IO69*%
X144780000Y-62230000D03*
%TO.P,J1,30,Pin_30*%
%TO.N,/IO70*%
X144780000Y-59690000D03*
%TO.P,J1,31,Pin_31*%
%TO.N,/IO71*%
X144780000Y-57150000D03*
%TO.P,J1,32,Pin_32*%
%TO.N,/IO72*%
X144780000Y-54610000D03*
%TO.P,J1,33,Pin_33*%
%TO.N,/IO73*%
X144780000Y-52070000D03*
%TO.P,J1,34,Pin_34*%
%TO.N,/IO74*%
X144780000Y-49530000D03*
%TO.P,J1,35,Pin_35*%
%TO.N,/IO75*%
X144780000Y-46990000D03*
%TO.P,J1,36,Pin_36*%
%TO.N,/IO76*%
X144780000Y-44450000D03*
%TO.P,J1,37,Pin_37*%
%TO.N,/IO77*%
X144780000Y-41910000D03*
%TO.P,J1,38,Pin_38*%
%TO.N,/OE1*%
X144780000Y-39370000D03*
%TO.P,J1,39,Pin_39*%
%TO.N,/GCLRN*%
X144780000Y-36830000D03*
%TO.P,J1,40,Pin_40*%
%TO.N,/OE2{slash}GCLK2*%
X144780000Y-34290000D03*
%TD*%
D15*
%TO.N,+5V*%
X115443000Y-81661000D03*
X123952000Y-123698000D03*
X128778000Y-86868000D03*
X126492000Y-69088000D03*
X115798600Y-71907400D03*
X128778000Y-76962000D03*
X120650000Y-69088000D03*
X119631546Y-88339246D03*
X119380000Y-123190000D03*
%TO.N,GND*%
X117856000Y-69088000D03*
X128207930Y-71695789D03*
X123698000Y-69088000D03*
X115401793Y-86855324D03*
X125222000Y-88392000D03*
X115570000Y-77216000D03*
X126391511Y-119607489D03*
X121668890Y-88385096D03*
X128778000Y-81788000D03*
%TO.N,/IO46*%
X132080000Y-85090000D03*
%TO.N,/IO48*%
X131826000Y-83632100D03*
%TO.N,/IO50*%
X132080000Y-82042000D03*
%TO.N,/IO71*%
X134620000Y-53848000D03*
%TO.N,/GCLK1*%
X123698000Y-66040000D03*
%TO.N,/TCK*%
X124867511Y-119607489D03*
X128812718Y-79928784D03*
%TO.N,/TDO*%
X127661511Y-125195489D03*
X128524000Y-72644000D03*
%TO.N,/TMS*%
X115570000Y-79756000D03*
X121565511Y-119607489D03*
%TO.N,/TDI*%
X115570000Y-72898000D03*
X121565511Y-123671489D03*
%TO.N,/OE1*%
X129794000Y-56896000D03*
%TO.N,/GCLRN*%
X129794000Y-55372000D03*
%TO.N,/OE2{slash}GCLK2*%
X121158000Y-66294000D03*
X117348000Y-51308000D03*
%TD*%
D16*
%TO.N,/IO71*%
X144780000Y-57150000D02*
X141478000Y-53848000D01*
X141478000Y-53848000D02*
X134620000Y-53848000D01*
D17*
%TO.N,GND*%
X127733989Y-74118489D02*
X128016000Y-74400500D01*
X123698000Y-69109500D02*
X124692500Y-70104000D01*
X123698000Y-69088000D02*
X123698000Y-69109500D01*
X123698000Y-69109500D02*
X122703500Y-70104000D01*
X127733989Y-72169730D02*
X127733989Y-74118489D01*
X128207930Y-71695789D02*
X127733989Y-72169730D01*
D16*
%TO.N,/IO46*%
X138684000Y-92710000D02*
X138684000Y-114554000D01*
X132080000Y-85090000D02*
X132080000Y-86106000D01*
X132080000Y-86106000D02*
X138684000Y-92710000D01*
D18*
X138684000Y-114554000D02*
X144780000Y-120650000D01*
D16*
%TO.N,/IO48*%
X140462000Y-111252000D02*
X144780000Y-115570000D01*
X140462000Y-92202000D02*
X140462000Y-111252000D01*
X131892100Y-83632100D02*
X140462000Y-92202000D01*
X131826000Y-83632100D02*
X131892100Y-83632100D01*
%TO.N,/IO50*%
X141986000Y-90932000D02*
X141986000Y-108966000D01*
X132080000Y-82042000D02*
X133096000Y-82042000D01*
X141986000Y-108966000D02*
X143510000Y-110490000D01*
X143510000Y-110490000D02*
X144780000Y-110490000D01*
X133096000Y-82042000D02*
X141986000Y-90932000D01*
%TO.N,/GCLK1*%
X123698000Y-56388000D02*
X101600000Y-34290000D01*
X123698000Y-66040000D02*
X123698000Y-56388000D01*
%TO.N,/TCK*%
X127174280Y-114379720D02*
X124867511Y-116686489D01*
X124867511Y-116686489D02*
X124867511Y-119607489D01*
X127174280Y-81567222D02*
X127174280Y-114379720D01*
X128812718Y-79928784D02*
X127174280Y-81567222D01*
%TO.N,/TDO*%
X129794000Y-123063000D02*
X127661511Y-125195489D01*
X128524000Y-72644000D02*
X129794000Y-73914000D01*
X129794000Y-73914000D02*
X129794000Y-123063000D01*
%TO.N,/TMS*%
X120055711Y-118097689D02*
X121565511Y-119607489D01*
X115570000Y-79756000D02*
X117094000Y-81280000D01*
X120055711Y-92115711D02*
X120055711Y-118097689D01*
X117094000Y-81280000D02*
X117094000Y-89154000D01*
X117094000Y-89154000D02*
X120055711Y-92115711D01*
%TO.N,/TDI*%
X115570000Y-72898000D02*
X123190000Y-80518000D01*
X123190000Y-80518000D02*
X123190000Y-122047000D01*
X123190000Y-122047000D02*
X121565511Y-123671489D01*
%TO.N,/OE1*%
X129794000Y-56896000D02*
X136652000Y-50038000D01*
X136652000Y-50038000D02*
X136652000Y-43180000D01*
X140462000Y-39370000D02*
X144780000Y-39370000D01*
X136652000Y-43180000D02*
X140462000Y-39370000D01*
%TO.N,/GCLRN*%
X129794000Y-55372000D02*
X135636000Y-49530000D01*
X135636000Y-38608000D02*
X137414000Y-36830000D01*
X137414000Y-36830000D02*
X144780000Y-36830000D01*
X135636000Y-49530000D02*
X135636000Y-38608000D01*
%TO.N,/OE2{slash}GCLK2*%
X117348000Y-51308000D02*
X117348000Y-52832000D01*
X117348000Y-52832000D02*
X121158000Y-56642000D01*
X121158000Y-56642000D02*
X121158000Y-66294000D01*
%TD*%
M02*
