%TF.GenerationSoftware,KiCad,Pcbnew,(6.0.0-0)*%
%TF.CreationDate,2023-01-15T17:49:44+00:00*%
%TF.ProjectId,altera-7128-adaptor,616c7465-7261-42d3-9731-32382d616461,rev?*%
%TF.SameCoordinates,Original*%
%TF.FileFunction,Soldermask,Bot*%
%TF.FilePolarity,Negative*%
%FSLAX46Y46*%
G04 Gerber Fmt 4.6, Leading zero omitted, Abs format (unit mm)*
G04 Created by KiCad (PCBNEW (6.0.0-0)) date 2023-01-15 17:49:44*
%MOMM*%
%LPD*%
G01*
G04 APERTURE LIST*
G04 Aperture macros list*
%AMRoundRect*
0 Rectangle with rounded corners*
0 $1 Rounding radius*
0 $2 $3 $4 $5 $6 $7 $8 $9 X,Y pos of 4 corners*
0 Add a 4 corners polygon primitive as box body*
4,1,4,$2,$3,$4,$5,$6,$7,$8,$9,$2,$3,0*
0 Add four circle primitives for the rounded corners*
1,1,$1+$1,$2,$3*
1,1,$1+$1,$4,$5*
1,1,$1+$1,$6,$7*
1,1,$1+$1,$8,$9*
0 Add four rect primitives between the rounded corners*
20,1,$1+$1,$2,$3,$4,$5,0*
20,1,$1+$1,$4,$5,$6,$7,0*
20,1,$1+$1,$6,$7,$8,$9,0*
20,1,$1+$1,$8,$9,$2,$3,0*%
G04 Aperture macros list end*
%ADD10R,1.700000X1.700000*%
%ADD11O,1.700000X1.700000*%
%ADD12RoundRect,0.250000X-0.337500X-0.475000X0.337500X-0.475000X0.337500X0.475000X-0.337500X0.475000X0*%
%ADD13RoundRect,0.250000X0.337500X0.475000X-0.337500X0.475000X-0.337500X-0.475000X0.337500X-0.475000X0*%
%ADD14RoundRect,0.250000X0.475000X-0.337500X0.475000X0.337500X-0.475000X0.337500X-0.475000X-0.337500X0*%
G04 APERTURE END LIST*
D10*
%TO.C,J2*%
X118014511Y-132566489D03*
D11*
X118014511Y-130026489D03*
X120554511Y-132566489D03*
X120554511Y-130026489D03*
X123094511Y-132566489D03*
X123094511Y-130026489D03*
X125634511Y-132566489D03*
X125634511Y-130026489D03*
X128174511Y-132566489D03*
X128174511Y-130026489D03*
%TD*%
D12*
%TO.C,C1*%
X120628500Y-70104000D03*
X122703500Y-70104000D03*
%TD*%
D10*
%TO.C,J5*%
X101600000Y-26431000D03*
D11*
X101600000Y-28971000D03*
X101600000Y-31511000D03*
%TD*%
D10*
%TO.C,J4*%
X144780000Y-26685000D03*
D11*
X144780000Y-29225000D03*
X144780000Y-31765000D03*
%TD*%
D13*
%TO.C,C4*%
X128037500Y-87630000D03*
X125962500Y-87630000D03*
%TD*%
D12*
%TO.C,C5*%
X118850500Y-87630000D03*
X120925500Y-87630000D03*
%TD*%
D10*
%TO.C,J3*%
X101600000Y-34290000D03*
D11*
X101600000Y-36830000D03*
X101600000Y-39370000D03*
X101600000Y-41910000D03*
X101600000Y-44450000D03*
X101600000Y-46990000D03*
X101600000Y-49530000D03*
X101600000Y-52070000D03*
X101600000Y-54610000D03*
X101600000Y-57150000D03*
X101600000Y-59690000D03*
X101600000Y-62230000D03*
X101600000Y-64770000D03*
X101600000Y-67310000D03*
X101600000Y-69850000D03*
X101600000Y-72390000D03*
X101600000Y-74930000D03*
X101600000Y-77470000D03*
X101600000Y-80010000D03*
X101600000Y-82550000D03*
X101600000Y-85090000D03*
X101600000Y-87630000D03*
X101600000Y-90170000D03*
X101600000Y-92710000D03*
X101600000Y-95250000D03*
X101600000Y-97790000D03*
X101600000Y-100330000D03*
X101600000Y-102870000D03*
X101600000Y-105410000D03*
X101600000Y-107950000D03*
X101600000Y-110490000D03*
X101600000Y-113030000D03*
X101600000Y-115570000D03*
X101600000Y-118110000D03*
X101600000Y-120650000D03*
X101600000Y-123190000D03*
X101600000Y-125730000D03*
X101600000Y-128270000D03*
X101600000Y-130810000D03*
X101600000Y-133350000D03*
%TD*%
D13*
%TO.C,C3*%
X126767500Y-70104000D03*
X124692500Y-70104000D03*
%TD*%
D14*
%TO.C,C2*%
X128016000Y-76475500D03*
X128016000Y-74400500D03*
%TD*%
D10*
%TO.C,J1*%
X144780000Y-133350000D03*
D11*
X144780000Y-130810000D03*
X144780000Y-128270000D03*
X144780000Y-125730000D03*
X144780000Y-123190000D03*
X144780000Y-120650000D03*
X144780000Y-118110000D03*
X144780000Y-115570000D03*
X144780000Y-113030000D03*
X144780000Y-110490000D03*
X144780000Y-107950000D03*
X144780000Y-105410000D03*
X144780000Y-102870000D03*
X144780000Y-100330000D03*
X144780000Y-97790000D03*
X144780000Y-95250000D03*
X144780000Y-92710000D03*
X144780000Y-90170000D03*
X144780000Y-87630000D03*
X144780000Y-85090000D03*
X144780000Y-82550000D03*
X144780000Y-80010000D03*
X144780000Y-77470000D03*
X144780000Y-74930000D03*
X144780000Y-72390000D03*
X144780000Y-69850000D03*
X144780000Y-67310000D03*
X144780000Y-64770000D03*
X144780000Y-62230000D03*
X144780000Y-59690000D03*
X144780000Y-57150000D03*
X144780000Y-54610000D03*
X144780000Y-52070000D03*
X144780000Y-49530000D03*
X144780000Y-46990000D03*
X144780000Y-44450000D03*
X144780000Y-41910000D03*
X144780000Y-39370000D03*
X144780000Y-36830000D03*
X144780000Y-34290000D03*
%TD*%
M02*
